<?xml version="1.0" encoding="utf-8"?>
<!-- Generator: Adobe Illustrator 26.0.0, SVG Export Plug-In . SVG Version: 6.00 Build 0)  -->
<svg version="1.1" id="Capa_1" xmlns="http://www.w3.org/2000/svg" xmlns:xlink="http://www.w3.org/1999/xlink" x="0px" y="0px"
	 viewBox="0 0 611.8 550.7" style="enable-background:new 0 0 611.8 550.7;" xml:space="preserve">
<g transform="translate(0.000000,682.000000) scale(0.100000,-0.100000)">
	<path d="M3230,6758c-85-127-170-321-262-600c-29-87-57-160-62-164c-6-3-28-28-49-56l-40-50v-109c0-109,0-110-46-207
		c-53-112-131-218.1-164-319.1c-13-38-24-71-25-73c-2-2-36-8-76-13c-80-12-213-51-270-80c-36-18-36-18-83,7c-43,23-53,24-131,18
		l-84-7l-81,72l-82,72l-33-25c-27-21-270-139-340-166c-11-4,45-7,125-7c188,0,265-16,357-76c37-25,97-57,133-72c36-15,81-39,100-53
		c50-37,196-162,260-222c51-48,53-52,27-47c-23,4-27,1-22-12c4-9,11-37,17-62l11-47l141-56c116-47,263-116,191-90
		c-11,4-96,33-190,64l-170,58l-16,70c-9,39-23,79-30,90c-8,10-67,66-131,123c-91,80-140,115-215,153c-54,27-121,64-150,82
		c-45,29-66,35-156,44c-58,6-174,11-258,12c-167,2-167,2-269-64l-45-29l51,49c44,41,75,58,205,111c85,34,192,82,239,105
		c94,47,92,43,66,136c-8,31-20,88-26,128c-12,88,5,187,47,271c45,90,179,222,278,274l30,15l-25,10c-14,6-99,39-190,75
		c-374,147-856,335-940,367c-84,33-205,79-350,135c-236,91-493,185-497,182c-1-2,17-30,40-63c234-322,480-736,632-1063
		c239-514,365-948,365-1252c-1-376-69-632-234-879c-31-46-54-85-52-87c2-2,35,2,72,9c110,20,495.3-100.9,880.9-289.5
		C2330.8,2843.8,3154,1313,3157,1313s300.2,565.1,534.2,750.1c263,208,745.8,313.7,1019.8,209.7c112-43,112-43,107-25
		c-1,8-5,80-8,160c-20,529,231,935,762,1238c116,66,303,144,545,228c30,11-566,375-1115,681c-334,186-469,258-463,247
		c2-5,25-54,52-108c126-264,138-439,40-613c-19-34-50-79-69-99s-35-38-35-39c0-1,35-8,78-14c42-7,86-14,97-17c28-5,89-114,124-221
		c32-97,58-235,66-358c4-76,3-73-19,53c-31,167-69,303-105,367c-81,145-68,132-143,144c-117,19-193,10-277-33c-25-14-53-15-176-9
		c-80,3-143,8-140,11c3,3,65,9,138,13c107,6,147,12,212,36c83,29,164,86,183,128c10,21,6,27-41,63c-29,21-70,55-92,75
		c-54,49-69,53-107,26l-31-23l-41,47c-23,26-49,47-59,47c-11,0-40,24-65,52c-26,29-81,89-123,133c-41,44-98,105-127,136l-52,56
		l14,74c8,41,20,126,26,189c11,101,18,126,55,205c82,171,135,297.1,175,612.1c13,106,14,590,0,700c-13,107-30,194-41,201
		c-9,5-9,5-45-151c-16-66-29-122-31-124c-1-2-30,18-65,44c-76,58-146,91-218,105c-133,25-300,1-421-60l-40-21l5,23
		c12,51,41,368,34,368C3273,6820,3253,6792,3230,6758z M3343,5950c56-25,164-113,152-125c-9-10-162,15-185,30c-25,17-66,76-77,113
		c-7,21-5,22,21,16C3269,5980,3309,5965,3343,5950z M3997,5824c0-3-9-18-20-34c-30-42-69-54-157-47c-119,9-117,28,7,68
		C3879,5828,3997,5837,3997,5824z M3207,5701c147-43,270-108,353-186l47-45l63,32c59,31,68,33,187,36l125,3l-37-35
		c-31-29-38-42-38-73c0-85-40-272.1-65-361.1l-15-52l-102-50l-103-51l-110,15c-125,17-127,18-317,169l-108,86v62
		c0,99,19,229.1,35,325.1c15,86,15,89-5,116l-21,28h23C3132,5720,3171,5712,3207,5701z M3106,3930.9c19-66,91-215,141-292
		c68-105,187-218,207-197c3,3,29,68,58,144c69,184,71,186,79,125l6-50l65-22c36-11,67-21,69-21s9,20,16,45s14,44,16,42
		c2-1,10-83,18-181c9-98,17-180,19-182c2-3,33,2,69,9c158,33,235,111,268,270l11,57l32-22c145-103,292-332,332-515l6-32l-83,6
		c-152,10-245-36-299-151c-16-34-29-66-29-73s-17-5-50,8c-124,47-262-1-387-135c-32-34-69-83-83-109c-28-54-40-59-40-19
		c0,46-66,220-106,280c-95,144-231,221-421,238l-73,7l-6,36c-31,190-112,310-257,381c-86,41-191,67-294,72l-62,3l27,28
		c39,41,146,118,224,161c132,73,328,128,478,135C3091,3977.9,3093,3975.9,3106,3930.9z"/>
	<path d="M3402,5376c-49-18-95-46-95-56c0-11,19-8,109,17c40,11,77,14,136,9c118-10,137-17,159-59c19-36,36-48,36-25
		c0,6-11,30-25,53c-27,47-32,48-175,60c-41,3-84,8-95,10C3441,5386,3419,5383,3402,5376z"/>
</g>
</svg>
